<?xml version="1.0" encoding="UTF-8" standalone="no"?>
<!-- Created with Inkscape (http://www.inkscape.org/) -->

<svg
   width="100"
   height="100"
   viewBox="0 0 26.458333 26.458333"
   version="1.1"
   id="svg1"
   inkscape:version="1.4 (e7c3feb100, 2024-10-09)"
   sodipodi:docname="pipistudio_icon_plain.svg"
   inkscape:export-filename="../../公共/icon_plain.svg"
   inkscape:export-xdpi="96"
   inkscape:export-ydpi="96"
   xmlns:inkscape="http://www.inkscape.org/namespaces/inkscape"
   xmlns:sodipodi="http://sodipodi.sourceforge.net/DTD/sodipodi-0.dtd"
   xmlns:xlink="http://www.w3.org/1999/xlink"
   xmlns="http://www.w3.org/2000/svg"
   xmlns:svg="http://www.w3.org/2000/svg">
  <sodipodi:namedview
     id="namedview1"
     pagecolor="#ffffff"
     bordercolor="#111111"
     borderopacity="1"
     inkscape:showpageshadow="0"
     inkscape:pageopacity="0"
     inkscape:pagecheckerboard="1"
     inkscape:deskcolor="#d1d1d1"
     inkscape:document-units="px"
     inkscape:zoom="4"
     inkscape:cx="62.125"
     inkscape:cy="54.375"
     inkscape:window-width="1920"
     inkscape:window-height="1027"
     inkscape:window-x="0"
     inkscape:window-y="27"
     inkscape:window-maximized="1"
     inkscape:current-layer="g1" />
  <defs
     id="defs1">
    <linearGradient
       id="linearGradient9"
       inkscape:collect="always">
      <stop
         style="stop-color:#36d1dc;stop-opacity:1;"
         offset="0"
         id="stop9" />
      <stop
         style="stop-color:#5b86e5;stop-opacity:1;"
         offset="1"
         id="stop10" />
    </linearGradient>
    <linearGradient
       id="linearGradient7"
       inkscape:collect="always">
      <stop
         style="stop-color:#fdc830;stop-opacity:1;"
         offset="0"
         id="stop7" />
      <stop
         style="stop-color:#f37335;stop-opacity:1;"
         offset="1"
         id="stop8" />
    </linearGradient>
    <linearGradient
       id="linearGradient5"
       inkscape:collect="always">
      <stop
         style="stop-color:#ff416c;stop-opacity:1;"
         offset="0"
         id="stop5" />
      <stop
         style="stop-color:#ff4b2b;stop-opacity:1;"
         offset="1"
         id="stop6" />
    </linearGradient>
    <linearGradient
       id="linearGradient1"
       inkscape:collect="always">
      <stop
         style="stop-color:#c6ffdd;stop-opacity:1;"
         offset="0"
         id="stop1" />
      <stop
         style="stop-color:#fbd786;stop-opacity:1;"
         offset="0.5"
         id="stop3" />
      <stop
         style="stop-color:#f7797d;stop-opacity:1;"
         offset="1"
         id="stop2" />
    </linearGradient>
    <linearGradient
       inkscape:collect="always"
       xlink:href="#linearGradient1"
       id="linearGradient2"
       x1="12.380867"
       y1="3.7152889"
       x2="-1.2286136"
       y2="3.7152889"
       gradientUnits="userSpaceOnUse" />
    <linearGradient
       inkscape:collect="always"
       xlink:href="#linearGradient5"
       id="linearGradient6"
       x1="3.0828179"
       y1="4.873259"
       x2="13.323546"
       y2="4.873259"
       gradientUnits="userSpaceOnUse"
       gradientTransform="translate(0.6614583,0.6614583)" />
    <linearGradient
       inkscape:collect="always"
       xlink:href="#linearGradient7"
       id="linearGradient8"
       x1="1.6275303"
       y1="9.0019255"
       x2="12.665094"
       y2="9.0019255"
       gradientUnits="userSpaceOnUse"
       gradientTransform="translate(0.6614583,0.6614583)" />
    <linearGradient
       inkscape:collect="always"
       xlink:href="#linearGradient9"
       id="linearGradient10"
       x1="0.53625232"
       y1="12.555278"
       x2="12.274797"
       y2="12.555278"
       gradientUnits="userSpaceOnUse"
       gradientTransform="translate(0.6614583,0.6614583)" />
  </defs>
  <g
     inkscape:groupmode="layer"
     id="layer2"
     inkscape:label="画布">
    <g
       id="g1"
       transform="translate(0.11322459,-0.12833796)">
      <g
         id="g2">
        <path
           sodipodi:type="star"
           style="display:inline;fill:url(#linearGradient2);stroke:none;stroke-width:0.236437;stroke-dasharray:none;stroke-dashoffset:0;stroke-opacity:1"
           id="path1"
           inkscape:flatsided="false"
           sodipodi:sides="5"
           sodipodi:cx="6.4420462"
           sodipodi:cy="3.2210231"
           sodipodi:r1="7.1839647"
           sodipodi:r2="3.5919826"
           sodipodi:arg1="0.56810473"
           sodipodi:arg2="1.1964233"
           inkscape:rounded="0.24"
           inkscape:randomized="0.1"
           d="M 12.310313,7.4598577 C 11.696009,8.4925765 8.1321111,6.7269533 7.0592251,7.0789916 5.9863391,7.4310299 5.8673058,10.947863 4.8029726,10.576245 3.7386394,10.204627 4.9587345,6.6539021 4.3760041,5.6784879 3.7932737,4.7030737 -1.2696588,4.8063954 -1.2283625,3.609137 -1.1870662,2.4118785 3.4604424,2.2582002 4.0041535,1.2611118 4.5478646,0.26402347 2.4521268,-2.5811206 3.4667445,-3.1024076 4.4813622,-3.6236945 5.6778488,-1.1039861 6.7152693,-0.74710497 7.7526898,-0.39022387 10.783506,-2.2284602 11.563677,-1.4640492 12.343848,-0.69963817 9.4919032,1.8174573 9.4075067,2.9873394 9.3231102,4.1572215 12.924617,6.427139 12.310313,7.4598577 Z"
           inkscape:transform-center-x="0.96900414"
           inkscape:transform-center-y="0.55310557"
           transform="matrix(1.1190459,0,0,1.1190459,11.179414,13.472355)" />
        <path
           style="display:inline;fill:url(#linearGradient6);stroke-width:0.264583"
           d="m 13.765702,9.6833017 c 0.01083,-0.061417 0.0939,-0.1734174 0.03248,-0.1842449 -0.06141,-0.010826 -0.04331,0.2456633 -0.03248,0.1842449 0.04715,-0.2673956 0.220896,-0.9414465 0.219291,-1.2436628 -4.48e-4,-0.083955 -0.03696,-0.1638657 -0.05151,-0.24655 -0.09745,-0.553612 -0.09087,-1.1038983 -0.330781,-1.6256181 -0.02349,-0.051073 -0.08424,-0.074795 -0.121944,-0.116487 C 13.267774,6.2241199 12.864803,5.0418468 10.204824,4.8284832 9.8191997,4.8734791 9.4581875,4.9826428 9.2809227,4.9505367 9.1111859,4.9902007 8.9248352,5.0038189 8.7580013,4.9533186 8.1945373,4.9250222 8.013361,4.8542175 7.4926422,4.587721 7.2729865,4.4753044 6.992089,4.3296425 6.8043879,4.181401 5.2992303,3.0677895 5.4669644,1.2127681 4.9697087,1.3882251 4.5691467,1.3969747 4.3214682,1.8497824 4.0784072,2.133445 3.8746516,2.3784787 3.6902769,3.1005522 3.7588707,3.4069258 c 0.0689,0.307739 0.1701599,0.4774807 0.1924808,0.7938387 0.3412455,1.4079444 0.5780038,1.3188312 1.3739508,1.9045441 0.051629,0.038295 0.124493,0.040256 0.1761246,0.078549 0.1366107,0.1666513 0.2836093,0.2505341 0.4660681,0.3196487 0.1567888,0.055407 0.2762487,0.2062202 0.428128,0.2654654 0.3867317,0.1508582 0.8256831,0.1930838 1.2355412,0.2653528 0.9204676,0.2931463 1.6345269,-0.2844325 2.5576408,-0.4988931 0.262299,0.077248 0.530089,0.045786 0.799291,0.045949 0.4192,0.00981 0.68044,-0.09277 1.059416,0.1868031 0.06743,0.050017 0.156666,0.071459 0.214064,0.1327333 0.07537,0.080457 0.11855,0.1867073 0.189698,0.2709175 0.131225,0.03245 0.335949,0.3763839 0.463397,0.6041401 0.04567,0.075449 0.120204,0.1343773 0.151759,0.2167341 0.01764,0.046039 0.0041,0.1002684 0.0217,0.1463088 0.02366,0.061768 0.109164,0.096568 0.113819,0.1625504 0.0043,0.06035 -0.03679,0.1238793 -0.03249,0.1842472 0.06725,0.6013122 -0.08982,0.9194734 0.596245,1.1974893 z"
           id="path3"
           sodipodi:nodetypes="cssscsssscsssssssccssscccccccsssc" />
        <path
           style="display:inline;fill:url(#linearGradient8);stroke-width:0.264583"
           d="m 13.298841,12.991496 c -1.2e-5,-0.06238 0.06236,-0.187089 -7e-6,-0.187086 -0.06236,-2e-6 6e-6,0.249451 7e-6,0.187086 1e-6,-0.271522 0.05406,-0.965502 -2e-6,-1.262847 -0.01502,-0.0826 -0.06481,-0.154972 -0.09353,-0.233863 C 13.013214,10.966502 12.924128,10.423437 12.597267,9.9513041 12.565275,9.9050872 12.501319,9.8922784 12.45695,9.8577596 12.207792,9.6713345 11.605646,8.5769973 8.9490275,8.8287762 8.5770783,8.9400489 8.2405067,9.1102433 8.0603598,9.1094065 7.9000894,9.1779427 7.7189344,9.2237132 7.5458659,9.2029504 6.9860486,9.2729285 6.7953297,9.2346606 6.2362451,9.0626346 6.0004055,8.9900685 5.6984814,8.8953968 5.4878904,8.7820014 3.8122227,7.9466763 3.6552875,6.0907098 3.1960539,6.3498488 2.8030968,6.4280224 2.6378102,6.91696 2.4476995,7.2385202 2.289589,7.5152131 2.233402,8.2583328 2.354155,8.5481409 c 0.1212915,0.2910993 0.2504882,0.4406789 0.3274052,0.7483545 0.580548,1.3272976 0.7982351,1.1984256 1.6837981,1.6370256 0.057494,0.02875 0.1295918,0.01803 0.1870889,0.04677 0.1634746,0.140396 0.3228054,0.19748 0.5144936,0.23386 0.1640282,0.02734 0.3078618,0.155118 0.4677216,0.187089 0.4070525,0.08141 0.8466675,0.04677 1.2628487,0.04677 0.9573876,0.128855 1.5602963,-0.563963 2.4321545,-0.935439 0.2717272,0.03053 0.529987,-0.04695 0.7951264,-0.09354 0.414533,-0.06314 0.653993,-0.209518 1.075759,0 0.07509,0.03755 0.166695,0.04317 0.23386,0.09354 0.0882,0.06616 0.149173,0.163282 0.233861,0.233862 0.134866,0.0092 0.396203,0.312329 0.561266,0.514492 0.05808,0.06637 0.141709,0.111465 0.187088,0.187088 0.02538,0.04226 0.02145,0.09804 0.04682,0.140306 0.03403,0.05672 0.124288,0.07615 0.140312,0.140316 0.01471,0.05868 -0.01472,0.128389 -2e-6,0.187092 0.170645,0.580499 0.07121,0.9211 0.795128,1.075757 z"
           id="path4"
           sodipodi:nodetypes="cssscsssscsssssssccssscccccccsssc" />
        <path
           style="display:inline;fill:url(#linearGradient10);stroke-width:0.264583"
           d="m 12.933444,15.625441 c -0.01084,-0.06143 0.02892,-0.195075 -0.03249,-0.184242 -0.06141,0.01083 0.04332,0.24566 0.03249,0.184242 -0.04715,-0.267397 -0.114419,-0.960221 -0.219293,-1.243661 -0.02914,-0.07874 -0.09074,-0.141364 -0.132719,-0.214069 -0.280912,-0.486901 -0.462947,-1.006247 -0.866827,-1.414448 -0.03953,-0.03996 -0.104743,-0.04147 -0.15443,-0.06776 -0.277745,-0.140329 -1.060773,-1.113479 -3.6333105,-0.404209 -0.3469763,0.17417 -0.6488805,0.400225 -0.8264359,0.430683 -0.1459337,0.09533 -0.3163892,0.171858 -0.4904346,0.181459 -0.5391593,0.166135 -0.7336259,0.161567 -1.3140887,0.08924 -0.2448577,-0.03051 -0.5586345,-0.07132 -0.785717,-0.146419 -1.7952632,-0.531658 -2.2720994,-2.332176 -2.6793572,-1.99723 -0.3734125,0.145223 -0.4512849,0.655434 -0.582669,1.005122 -0.1076612,0.299945 -0.033953,1.041531 0.1352898,1.305967 0.1699978,0.265616 0.3232058,0.390488 0.4523816,0.680133 0.8022111,1.206322 0.9942126,1.041607 1.942484,1.319767 0.061613,0.01833 0.1307539,-0.0047 0.1923682,0.01357 0.1853705,0.109876 0.3521933,0.138425 0.5472866,0.140966 0.1662838,-0.0016 0.3301207,0.0993 0.4931035,0.103028 0.4150052,0.0095 0.8419263,-0.100963 1.2517848,-0.173232 0.9652181,-0.03935 1.4386607,-0.826338 2.2327671,-1.343568 0.2729005,-0.01712 0.5137808,-0.138277 0.7668034,-0.230191 0.3972712,-0.134163 0.6076756,-0.319898 1.0594169,-0.186802 0.08047,0.02394 0.171659,0.01357 0.246552,0.05152 0.09835,0.04984 0.175259,0.134897 0.270917,0.189699 0.134414,-0.01436 0.444419,0.238784 0.642079,0.409213 0.06872,0.05528 0.158912,0.08516 0.216734,0.151758 0.03233,0.03721 0.03815,0.09283 0.07047,0.130044 0.04336,0.04995 0.135623,0.05341 0.162546,0.113819 0.02468,0.05523 0.0078,0.128995 0.03249,0.18425 0.268855,0.542048 0.230076,0.894741 0.969852,0.921342 z"
           id="path5"
           sodipodi:nodetypes="cssscsssscsssssssccssscccccccsssc" />
      </g>
    </g>
  </g>
</svg>
